<svg width="72" height="68" viewBox="0 0 72 68" fill="none" xmlns="http://www.w3.org/2000/svg">
<path d="M28.22 0C12.651 0 0 11.7365 0 26.18C0 40.6235 12.651 52.36 28.22 52.36C34.3802 52.36 40.0734 50.5192 44.7162 47.4031L66.5556 67.6156L71.2244 63.2844L49.6444 43.2162C53.8852 38.6323 56.44 32.6829 56.44 26.18C56.44 11.7365 43.789 0 28.22 0ZM28.22 3.08C41.9928 3.08 53.12 13.4028 53.12 26.18C53.12 38.9572 41.9928 49.28 28.22 49.28C14.4472 49.28 3.32 38.9572 3.32 26.18C3.32 13.4028 14.4472 3.08 28.22 3.08Z" fill="black"/>
</svg>
